<svg xmlns="http://www.w3.org/2000/svg" width="20.03" height="20" viewBox="0 0 20.03 20">
  <defs>
    <style>
      .cls-1 {
        fill: #767676;
        fill-rule: evenodd;
      }
    </style>
  </defs>
  <path id="feedback" class="cls-1" d="M1131.67,2142.95l-2.61,3.45a1.2,1.2,0,0,1-1.98,1.26l-2.73-2.7a1.213,1.213,0,0,1,1.7-1.73l1.47,1.46,2.56-3.37a1.117,1.117,0,0,1,1.6.01A1.15,1.15,0,0,1,1131.67,2142.95ZM1126,2151h-10v-2h10v2Zm-10-10h6v2h-6v-2Zm6,6h-6v-2h6v2Zm7-8a1,1,0,0,0-1-1h-13a1,1,0,0,0-1,1v14a1,1,0,0,0,1,1h13a1,1,0,0,0,1-1v-4h2v5a2.006,2.006,0,0,1-2,2h-15a2.006,2.006,0,0,1-2-2v-16a2,2,0,0,1,2-2h15a2,2,0,0,1,2,2v2l-2-.04V2139Z" transform="translate(-1112 -2136)"/>
</svg>
