<svg xmlns="http://www.w3.org/2000/svg" width="20" height="20" viewBox="0 0 20 20">
  <defs>
    <style>
      .cls-1 {
        fill: #767676;
        fill-rule: evenodd;
      }
    </style>
  </defs>
  <path id="recently-viewed" class="cls-1" d="M1196,2156a10,10,0,1,1,10-10A10,10,0,0,1,1196,2156Zm0-18a8,8,0,1,0,8,8A7.71,7.71,0,0,0,1196,2138Zm2.21,11.69-2.9-2.63a0.868,0.868,0,0,1-.29-0.69v-4.47a0.99,0.99,0,0,1,1.97,0v4.06l2.67,2.41a0.876,0.876,0,0,1,0,1.32A1.108,1.108,0,0,1,1198.21,2149.69Z" transform="translate(-1186 -2136)"/>
</svg>
