<svg id="telephone-s" xmlns="http://www.w3.org/2000/svg" width="20" height="20.03" viewBox="0 0 20 20.03">
  <defs>
    <style>
      .cls-1 {
        fill: #767676;
        fill-rule: evenodd;
      }
    </style>
  </defs>
  <path id="telephone" class="cls-1" d="M607.912,2247.97c-2.06.32-4.886-.88-9.042-6.56-5.782-7.9-3.88-10.7-1.946-12.11l0.052-.04c0.036-.03,1.535-1.08,1.537-1.08a1.029,1.029,0,0,1,1.42.23l3.573,4.88a0.965,0.965,0,0,1,.175.74,1.016,1.016,0,0,1-.413.65l-1.391.97a5.6,5.6,0,0,0,1.266,2.73,5.774,5.774,0,0,0,2.253,2.1c0.321-.22,1.284-0.89,1.384-0.96a1.035,1.035,0,0,1,1.426.22l3.592,4.86a0.972,0.972,0,0,1-.215,1.37c-0.008.01-1.459,1.03-1.565,1.1l-0.09.06A5.02,5.02,0,0,1,607.912,2247.97Zm-9.045-17.59c-0.339.24-.657,0.46-0.683,0.48l-0.042.03c-0.794.58-2.9,2.13,2.387,9.36,5.283,7.21,7.365,5.83,8.254,5.23l0.1-.06c0.054-.04.348-0.25,0.662-0.46l-2.4-3.25c-0.641.44-.677,0.47-0.695,0.48-1.21.84-3.025-.07-4.824-2.45-1.49-1.98-2.554-4.49-1.07-5.61l0.7-.49Zm6.444,10.16s0,0-.006.01C605.307,2240.54,605.309,2240.54,605.311,2240.54Z" transform="translate(-593.515 -2227.97)"/>
</svg>
