<svg xmlns="http://www.w3.org/2000/svg" width="64" height="64" viewBox="0 0 64 64">
  <defs>
    <style>
      .cls-1 {
        fill: #333;
        fill-rule: evenodd;
      }
    </style>
  </defs>
  <path id="inquiry-status-l" class="cls-1" d="M374,2779l-0.75,3h5.5l-0.75-3h-4Zm-2,0-0.75,3H368a1,1,0,0,0,0,2h15l-1-2h-1.25l-0.75-3h2v-2H352v-35h48v22l2,1v-23a2.14,2.14,0,0,0-2-2H352a2.064,2.064,0,0,0-2,2v35a2.209,2.209,0,0,0,2,2h20Zm5-5a1,1,0,1,1-1-1A1,1,0,0,1,377,2774Zm7-5-1.942,2H354v-27h44v20h-2v-18H356v23h28Zm11,19a11,11,0,1,1,11-11A11,11,0,0,1,395,2788Zm0-20a9,9,0,1,0,9,9A9,9,0,0,0,395,2768Zm-0.2,12.55a0.78,0.78,0,0,1-.1.15,1.031,1.031,0,0,1-1.469,0l-2.939-2.94a1.039,1.039,0,1,1,1.469-1.47l2.291,2.29,4.3-4.3a0.961,0.961,0,0,1,1.358,1.36Z" transform="translate(-346 -2732)"/>
</svg>
