<svg xmlns="http://www.w3.org/2000/svg" width="64" height="64" viewBox="0 0 64 64">
  <defs>
    <style>
      .cls-1 {
        fill: #333;
        fill-rule: evenodd;
      }
    </style>
  </defs>
  <path id="manuals-documents-l" class="cls-1" d="M519,2623a11,11,0,1,1,11-11A11,11,0,0,1,519,2623Zm0-20a9,9,0,1,0,9,9A9,9,0,0,0,519,2603Zm-1,8h2v6h-2v-6Zm1-2a1,1,0,1,1,1-1A1,1,0,0,1,519,2609Zm-13.1,7.83c0.031,0.05,0,.01.023,0.04A0.349,0.349,0,0,1,505.9,2616.83Zm0,0C505.78,2616.65,505.648,2616.43,505.9,2616.83ZM505,2615H479a1,1,0,0,1,0-2h26A1,1,0,0,1,505,2615Zm14-16a1.018,1.018,0,0,1-1-1v-29H490v15l-5-4-5,4v-15h-1a3.024,3.024,0,0,0-3,3v38a5.044,5.044,0,0,1,3-1h26a1,1,0,0,1,0,2H479c-1.425-.01-2.775,1.58-3,3a3.084,3.084,0,0,0,3,3h27a8.373,8.373,0,0,0,2,2H479a5.1,5.1,0,0,1-5-5v-42a5.1,5.1,0,0,1,5-5h39a2.289,2.289,0,0,1,2,2v29A1.019,1.019,0,0,1,519,2599Zm-37-30v11l2.976-2.54L488,2580v-11h-6Z" transform="translate(-470 -2563)"/>
</svg>
