<svg xmlns="http://www.w3.org/2000/svg" width="64" height="64" viewBox="0 0 64 64">
  <defs>
    <style>
      .cls-1 {
        fill: #333;
        fill-rule: evenodd;
      }
    </style>
  </defs>
  <path id="repair-a-product-l" class="cls-1" d="M519,2792a11,11,0,1,1,11-11A11,11,0,0,1,519,2792Zm0-20a9,9,0,1,0,9,9A9,9,0,0,0,519,2772Zm-0.2,12.55a0.78,0.78,0,0,1-.1.15,1.031,1.031,0,0,1-1.469,0l-2.939-2.94a1.039,1.039,0,0,1,1.469-1.47l2.291,2.29,4.3-4.3a0.961,0.961,0,0,1,1.357,1.36ZM494,2761a3,3,0,0,1,0-6h10a3,3,0,0,1,0,6H494Zm11-3a1,1,0,0,0-1-1H494a1,1,0,0,0,0,2h10A1,1,0,0,0,505,2758Zm17-7H476v33h30l1,2H475a1,1,0,0,1-1-1v-35a1,1,0,0,1,1-1h-1l8-12a1,1,0,0,1,1-1h31a1,1,0,0,1,1,1l9,12h-1a1,1,0,0,1,1,1v19l-2-1v-17Zm-24-13H484l-7,11h21v-11Zm15,0H500v11h21Z" transform="translate(-470 -2732)"/>
</svg>
