<svg xmlns="http://www.w3.org/2000/svg" width="64" height="64" viewBox="0 0 64 64">
  <defs>
    <style>
      .cls-1 {
        fill: #333;
        fill-rule: evenodd;
      }
    </style>
  </defs>
  <path id="request-a-repair-l" class="cls-1" d="M281.907,2601.66c0.838,4.65-3.651,8-7.907,8.34-0.177,0-.468.02-0.8,0.04l5.861,5.86a4.493,4.493,0,0,1,1.424,2.84,5.024,5.024,0,0,1-4.273,4.27,4.527,4.527,0,0,1-2.849-1.42l-6.409-6.41-4.273,5.7a6.007,6.007,0,0,1-4.1,2.05,6.5,6.5,0,0,1-4.447-2.05,5.8,5.8,0,0,1-1.84-4.23,6.171,6.171,0,0,1,1.84-4.31l8.228-6.17a1.058,1.058,0,0,1-.4-0.24l-3.985-3.98a0.98,0.98,0,0,1-.136-0.21,4.064,4.064,0,0,1-1.288.21,3,3,0,0,1-2.136-.71l-2.137-2.13a1.065,1.065,0,0,1,0-1.43l2.849-2.84a1.052,1.052,0,0,1,1.424,0l2.137,2.13a3.2,3.2,0,0,1,.542,3.45,1.031,1.031,0,0,1,.17.11l3.985,3.98a1.012,1.012,0,0,1,.271.69l1.425-1.07a20.09,20.09,0,0,1-.272-2.47c0-3.94,3.234-8.89,8.184-8.66a17.8,17.8,0,0,1,1.786.13,0.972,0.972,0,0,1,.712.71,2.17,2.17,0,0,1,0,1.42l-1.424,1.42a3.27,3.27,0,0,0,0,4.27,3.339,3.339,0,0,0,4.272,0l1.425-1.42a2.169,2.169,0,0,1,1.424,0,1.068,1.068,0,0,1,.712.71C282.116,2601.01,281.769,2600.9,281.907,2601.66Zm-24.637-3.27-1.424-1.42-1.424,1.42,1.424,1.43a1.085,1.085,0,0,0,1.424,0A1.066,1.066,0,0,0,257.27,2598.39Zm17.516,21.77a2.159,2.159,0,0,0,2.848,0,2,2,0,0,0,.737-1.28,2.637,2.637,0,0,0-.737-1.56l-7.019-7.01-0.814,1.08-1.424,2.37Zm1.657-16.11a6.236,6.236,0,0,1-3.794-1.67,5.394,5.394,0,0,1,0-7.12c-3.993,0-5.7,3.41-5.7,7.12a13.714,13.714,0,0,0,.017,1.45,1.042,1.042,0,0,1-.017,1.39l-11.394,8.54a4.651,4.651,0,0,0-1.381,2.87,4.39,4.39,0,0,0,1.381,2.82,4.33,4.33,0,0,0,5.7,0l8.546-11.38a1.052,1.052,0,0,1,1.424,0,0.826,0.826,0,0,1,.119.18c0.437,0.01.879-.2,1.305-0.18,3.7,0.16,7.075-2.06,7.122-5.69A5.168,5.168,0,0,1,276.443,2604.05ZM258,2617.99a0.99,0.99,0,1,1,1.007-.99A1,1,0,0,1,258,2617.99ZM238,2604a1,1,0,1,1,1-1A1,1,0,0,1,238,2604Zm0-6a1,1,0,1,1,1-1A1,1,0,0,1,238,2598Zm0-12a1,1,0,1,1,1-1A1,1,0,0,1,238,2586Zm0,6a1,1,0,1,1,1-1A1,1,0,0,1,238,2592Zm4,12h0a1,1,0,0,1,0-2h10l2,2H242Zm9-8-2,2h-7a1,1,0,0,1,0-2h9Zm-9-10a1,1,0,0,1,0-2h16a1,1,0,0,1,0,2H242Zm16,6H242a1,1,0,0,1,0-2h16A1,1,0,0,1,258,2592Zm10-21H257.333L257,2572a2,2,0,0,1-2,2H241a2,2,0,0,1-2-2l-0.333-1H228v46h22v2H228a2,2,0,0,1-2-2v-46a2,2,0,0,1,2-2h10a2,2,0,0,1,2-2h16a2,2,0,0,1,2,2h10a2,2,0,0,1,2,2v20l-2,1v-21Zm-28-2,1,3h14l1-3H240Z" transform="translate(-222 -2563)"/>
</svg>
