<svg xmlns="http://www.w3.org/2000/svg" width="64" height="64" viewBox="0 0 64 64">
  <defs>
    <style>
      .cls-1 {
        fill: #333;
        fill-rule: evenodd;
      }
    </style>
  </defs>
  <path id="track-repair-l" class="cls-1" d="M866,2592h4a1,1,0,0,1,1,1v4a1,1,0,0,1-1,1h-4a1,1,0,0,1-1-1v-4A1,1,0,0,1,866,2592Zm1,2h2v2h-2v-2Zm-8-10h4a1,1,0,0,1,1,1v4a1,1,0,0,1-1,1h-4a1,1,0,0,1-1-1v-4A1,1,0,0,1,859,2584Zm1,2h2v2h-2v-2Zm14,10h10a2,2,0,0,0,2-2v-6a2,2,0,0,0-2-2H864v2h19a1,1,0,0,1,1,1v4a1,1,0,0,1-1,1h-9v2Zm-9-2h-5a2,2,0,0,0-2,2v6a2,2,0,0,0,2,2h17v-2H861a1,1,0,0,1-1-1v-4a1,1,0,0,1,1-1h4v-2Zm12.7,8.29a1.039,1.039,0,0,1,0,1.47l-2.939,2.94a1.039,1.039,0,1,1-1.469-1.47l2.939-2.94A1.049,1.049,0,0,1,877.7,2602.29Zm-0.029,1.41a1.033,1.033,0,0,0,0-1.46l-2.921-2.92a1.032,1.032,0,0,0-1.46,1.46l2.921,2.92A1.02,1.02,0,0,0,877.675,2603.7Zm-4.35-7.97a1.045,1.045,0,0,1,0-1.47l2.92-2.93a1.021,1.021,0,0,1,1.461,0,1.033,1.033,0,0,1,0,1.46l-2.921,2.94A1.02,1.02,0,0,1,873.325,2595.73Zm0.029-1.41a1.038,1.038,0,0,0,0,1.46l2.9,2.92a1.011,1.011,0,0,0,1.452,0,1.038,1.038,0,0,0,0-1.46l-2.9-2.92A1.027,1.027,0,0,0,873.354,2594.32ZM852,2574a1,1,0,1,1-1,1A1,1,0,0,1,852,2574Zm4,0a1,1,0,1,1-1,1A1,1,0,0,1,856,2574Zm4,0a1,1,0,1,1-1,1A1,1,0,0,1,860,2574Zm19,40H849a2,2,0,0,1-2-2v-40a2,2,0,0,1,2-2h46a2,2,0,0,1,2,2v26l-2-2v-24H849v40h29Zm-30-36h46v2H849v-2Zm47.286,36.28a1.008,1.008,0,0,1,1.405,0l3.022,3.03a0.991,0.991,0,1,1-1.4,1.4l-3.023-3.02A1,1,0,0,1,896.286,2614.28ZM890,2598a10,10,0,1,1-10,10A10,10,0,0,1,890,2598Zm0,2a8,8,0,1,1-8,8A8,8,0,0,1,890,2600Z" transform="translate(-842 -2562.5)"/>
</svg>
