<?xml version="1.0" encoding="utf-8"?>
<!-- Generator: Adobe Illustrator 24.1.1, SVG Export Plug-In . SVG Version: 6.00 Build 0)  -->
<svg version="1.1" id="레이어_1" xmlns="http://www.w3.org/2000/svg" xmlns:xlink="http://www.w3.org/1999/xlink" x="0px"
	 y="0px" viewBox="0 0 20 20" style="enable-background:new 0 0 20 20;" xml:space="preserve">
<style type="text/css">
	.st0{fill:#333333;}
	.st1{fill-rule:evenodd;clip-rule:evenodd;fill:#333333;}
</style>
<path class="st0" d="M9.4,2.5c-2,0-3.6,1.6-3.6,3.6s1.6,3.6,3.6,3.6S13,8.2,13,6.1S11.3,2.5,9.4,2.5z M11.6,6.1c0,1.2-1,2.2-2.2,2.2
	s-2.2-1-2.2-2.2s1-2.2,2.2-2.2S11.6,4.9,11.6,6.1z"/>
<g>
	<g>
		<path class="st1" d="M9.1,12.8l-0.7-0.7c-0.2-0.2-0.2-0.4,0-0.6h1.8c0.2,0.2,0.2,0.4,0,0.6l-0.7,0.7C9.4,13,9.2,13,9.1,12.8z"/>
	</g>
	<g>
		<path class="st1" d="M9.2,16.4l-0.8-1.6c0-0.1,0-0.1,0-0.2l0.8-2.4c0.1-0.1,0.2-0.1,0.3,0l0.8,2.4c0,0.1,0,0.1,0,0.2l-0.8,1.6
			C9.4,16.6,9.3,16.6,9.2,16.4z"/>
	</g>
</g>
<path class="st0" d="M11.3,10.4H7.4c-2.4,0-4.3,1.8-4.3,4V17c0,0.7,0.6,1.3,1.3,1.3h10c0.7,0,1.3-0.6,1.3-1.3v-2.7
	C15.6,12.1,13.6,10.4,11.3,10.4z M14.2,14.3v2.5H4.5v-2.5c0-1.4,1.3-2.5,2.9-2.5h3.8C12.8,11.8,14.2,13,14.2,14.3z"/>
<path class="st0" d="M16.4,6.9c0-1.2,0.5-2.4,1.4-3.2c0.1-0.1,0.2-0.3,0.2-0.5c0-0.2-0.1-0.3-0.2-0.5c-0.1-0.1-0.3-0.2-0.5-0.2l0,0
	c-0.2,0-0.3,0.1-0.5,0.2c-1.1,1.1-1.8,2.6-1.8,4.2s0.6,3,1.8,4.2c0.1,0.1,0.3,0.2,0.5,0.2s0.3-0.1,0.5-0.2c0.1-0.1,0.2-0.3,0.2-0.5
	s-0.1-0.3-0.2-0.5C16.9,9.3,16.4,8.1,16.4,6.9z"/>
<path class="st0" d="M19.8,5.8C19.9,5.6,20,5.5,20,5.3c0-0.2-0.1-0.3-0.2-0.5c-0.3-0.3-0.7-0.3-1,0C18.2,5.4,18,6.1,18,6.9
	s0.3,1.5,0.8,2c0.1,0.1,0.3,0.2,0.5,0.2s0.3-0.1,0.5-0.2C19.9,8.8,20,8.7,20,8.5c0-0.2-0.1-0.3-0.2-0.5C19.2,7.4,19.2,6.4,19.8,5.8z
	"/>
</svg>
