<svg xmlns="http://www.w3.org/2000/svg" width="20" height="20" viewBox="0 0 20 20">
  <defs>
    <style>
      .cls-1 {
        fill: #767676;
        fill-rule: evenodd;
      }
    </style>
  </defs>
  <path id="email" class="cls-1" d="M601,956H583a1,1,0,0,1-1-1V943a1,1,0,0,1,1-1h18a1,1,0,0,1,1,1v12A1,1,0,0,1,601,956Zm-2.219-2-4.251-4-2.034,1.865a1,1,0,0,1-.992,0l-2.056-1.9L585.21,954h13.571ZM584,952.4l3.981-3.786L584,944.935V952.4Zm1.82-8.4,6.18,5.847L593.963,948a0.2,0.2,0,0,1,.019-0.028c0.007-.006.017-0.007,0.024-0.013L598.231,944H585.82ZM596,948.652l4,3.757V944.99Z" transform="translate(-582 -939)"/>
</svg>
