<?xml version="1.0" encoding="utf-8"?>
<!-- Generator: Adobe Illustrator 24.1.1, SVG Export Plug-In . SVG Version: 6.00 Build 0)  -->
<svg version="1.1" id="레이어_1" xmlns="http://www.w3.org/2000/svg" xmlns:xlink="http://www.w3.org/1999/xlink" x="0px"
	 y="0px" viewBox="0 0 56 56" style="enable-background:new 0 0 56 56;" xml:space="preserve">
<style type="text/css">
	.st0{fill:#333333;}
	.st1{fill-rule:evenodd;clip-rule:evenodd;fill:#333333;}
</style>
<g>
	<path class="st0" d="M24.2,27.3c-5.5,0-9.9-4.4-9.9-9.9s4.4-9.9,9.9-9.9s9.9,4.4,9.9,9.9S29.7,27.3,24.2,27.3z M24.2,9.4
		c-4.4,0-8,3.6-8,8s3.6,8,8,8s8-3.6,8-8S28.6,9.4,24.2,9.4z"/>
</g>
<g>
	<g>
		<path class="st1" d="M23.3,34.4l-2-2.5c-0.5-0.6-0.5-1.5,0-2.2h5.6c0.5,0.6,0.5,1.5,0,2.2l-2,2.5C24.6,35,23.8,35,23.3,34.4z"/>
	</g>
	<g>
		<path class="st1" d="M23.8,47.7l-2.6-6c-0.1-0.2-0.1-0.3,0-0.5l2.7-8.5c0.2-0.4,0.6-0.4,0.8,0l2.7,8.6c0.1,0.2,0.1,0.3,0,0.5
			l-2.7,6C24.5,48.1,24,48.1,23.8,47.7z"/>
	</g>
</g>
<g>
	<path class="st0" d="M39.6,51.4H8.8c-1.4,0-2.6-1.1-2.6-2.6v-8.3c0-6.1,5.5-10.9,12.2-10.9h11.8c6.7,0,12.2,4.9,12.2,10.9v8.3
		C42.3,50.2,41.1,51.4,39.6,51.4z M18.3,31.4c-5.7,0-10.3,4.1-10.3,9v8.3c0,0.4,0.3,0.8,0.8,0.8h30.9c0.4,0,0.8-0.3,0.8-0.8v-8.3
		c0-5-4.6-9-10.3-9C30.1,31.4,18.3,31.4,18.3,31.4z"/>
</g>
<g>
	<g>
		<path class="st0" d="M49.3,6.5c0.3-0.3,0.3-0.9,0-1.2C49,5,48.3,5,48,5.3c-6.7,6.7-6.7,17.6,0,24.3c0.3,0.3,0.9,0.3,1.2,0
			c0.3-0.3,0.3-0.9,0-1.2C43.2,22.3,43.2,12.5,49.3,6.5L49.3,6.5z"/>
	</g>
	<g>
		<path class="st0" d="M54.6,11.8c-3.1,3.1-3.1,8.1,0,11.2c0.3,0.3,0.9,0.3,1.2,0c0.3-0.3,0.3-0.9,0-1.2c-2.4-2.4-2.4-6.3,0-8.7
			c0.3-0.3,0.3-0.9,0-1.2C55.5,11.5,54.9,11.5,54.6,11.8L54.6,11.8z"/>
	</g>
</g>
</svg>
