<svg xmlns="http://www.w3.org/2000/svg" width="20" height="20" viewBox="0 0 20 20">
  <defs>
    <style>
      .cls-1 {
        fill: #767676;
        fill-rule: evenodd;
      }
    </style>
  </defs>
  <path id="chatbot" class="cls-1" d="M42,2780H41v3l-4.5-3H34a2,2,0,0,1-2-2v-1l2,0.01V2777a1,1,0,0,0,1,1h1.5l2.5,1.5V2778h2a1,1,0,0,0,1-1v-4a1,1,0,0,0-1-1h0v-2h1a2,2,0,0,1,2,2v6A2,2,0,0,1,42,2780Zm-4-4H32.5l-4.5,3v-3H26a2,2,0,0,1-2-2v-9a2,2,0,0,1,2-2H38a2,2,0,0,1,2,2v9A2,2,0,0,1,38,2776Zm0-10a1,1,0,0,0-1-1H28c-0.552,0-2,.45-2,1v7c0,0.55,1.448,1,2,1h2v1.5l2.5-1.5H37a1,1,0,0,0,1-1v-7Zm-10,4h8v2H28v-2Zm0-3h8v2H28v-2Z" transform="translate(-24 -2763)"/>
</svg>
