<svg xmlns="http://www.w3.org/2000/svg" width="70" height="70" viewBox="0 0 70 70">
  <defs>
    <style>
      .cls-1 {
        fill: #e4e4e4;
        fill-rule: evenodd;
      }
    </style>
  </defs>
  <path id="icon_no_result" data-name="icon_no result" class="cls-1" d="M799,1209a35,35,0,1,1,35-35A35,35,0,0,1,799,1209Zm0-66.79A31.79,31.79,0,1,0,830.789,1174,31.787,31.787,0,0,0,799,1142.21Zm-0.009,47.8a2.071,2.071,0,1,1,2-2.07A2.036,2.036,0,0,1,798.991,1190.01Zm0-7.23a2.036,2.036,0,0,1-2-2.07v-20.65a2,2,0,1,1,3.992,0v20.65A2.036,2.036,0,0,1,798.991,1182.78Z" transform="translate(-764 -1139)"/>
</svg>
