<svg xmlns="http://www.w3.org/2000/svg" width="20" height="20" viewBox="0 0 20 20">
  <defs>
    <style>
      .cls-1 {
        fill: #767676;
        fill-rule: evenodd;
      }
    </style>
  </defs>
  <path id="telephone" class="cls-1" d="M37.912,2872.97c-2.06.32-4.886-.88-9.042-6.56-5.782-7.9-3.88-10.7-1.947-12.11l0.052-.04c0.036-.03,1.535-1.08,1.537-1.08a1.03,1.03,0,0,1,1.42.23l3.573,4.88a0.968,0.968,0,0,1,.175.74,0.993,0.993,0,0,1-.413.65l-1.391.98a5.61,5.61,0,0,0,1.265,2.72,5.839,5.839,0,0,0,2.253,2.11c0.321-.23,1.284-0.9,1.384-0.97a1.035,1.035,0,0,1,1.426.22l3.592,4.86a0.983,0.983,0,0,1-.214,1.38c-0.008,0-1.459,1.02-1.566,1.09l-0.089.06A5.022,5.022,0,0,1,37.912,2872.97Zm-9.046-17.59c-0.338.24-.657,0.46-0.683,0.48l-0.042.03c-0.794.58-2.9,2.13,2.388,9.36s7.365,5.83,8.254,5.23l0.1-.06c0.053-.04.348-0.24,0.662-0.46l-2.4-3.25c-0.64.45-.677,0.47-0.695,0.48-1.21.84-3.025-.07-4.824-2.45-1.49-1.98-2.554-4.49-1.07-5.61l0.7-.49Zm6.444,10.16s0,0.01-.006.01S35.309,2865.55,35.311,2865.54Z" transform="translate(-23.516 -2853)"/>
</svg>
