<svg xmlns="http://www.w3.org/2000/svg" width="64" height="64" viewBox="0 0 64 64">
  <defs>
    <style>
      .cls-1 {
        fill: #333;
        fill-rule: evenodd;
      }
    </style>
  </defs>
  <path id="Using_the_Website_" data-name="Using the Website " class="cls-1" d="M332,1489H284v35h34l1,2H284a2.209,2.209,0,0,1-2-2v-35a2.064,2.064,0,0,1,2-2h48a2.14,2.14,0,0,1,2,2v29l-2-1v-28Zm-32,40h3.25l0.75-3h2l-0.75,3h5.5l-0.75-3h2l0.75,3H316a1.157,1.157,0,0,1,1,1,1.12,1.12,0,0,1-1,1H300A1,1,0,0,1,300,1529Zm9-8a1,1,0,1,1-1-1A1,1,0,0,1,309,1521Zm7-5,1,2H286v-27h44v24l-2-1v-21H288v23h28Zm18.519,11.04-2.292.13,3.6,6.1c0.318,0.54-.14,2.41-1.641,3.26-1.531.86-3.344,0.36-3.7-.24l-3.594-6.1-1.266,1.88c-0.882,1.6-2.75,3.7-4.071,1.14l-2.5-18.34c-0.112-.57-0.224-2.19.752-2.75,0.894-.5,2.486.49,2.806,0.74l14.956,11.29C338.672,1525.69,337.676,1527.43,334.519,1527.04Zm-0.62-1.96a6.672,6.672,0,0,0-1.3-.12,2.882,2.882,0,0,0-2.2.26c-0.883.5-.487,2.06-0.487,2.06l3.61,6.13a0.947,0.947,0,0,1-.343,1.35,0.977,0.977,0,0,1-1.436-.35l-3.559-6.04s-1.32-1.15-2.145-.68a2.27,2.27,0,0,0-1.3,1.77c-0.34,1.42-.5,1.07-0.5,1.07-0.228.73-1.263,0.71-1.242-.53l-1.86-14.06a0.669,0.669,0,0,1,.416-0.97,0.754,0.754,0,0,1,1,.28L334,1524C334.877,1524.37,334.638,1525.12,333.9,1525.08Z" transform="translate(-278 -1480)"/>
</svg>
